<svg id="Layer_5" enable-background="new 0 0 64 64" height="512" viewBox="0 0 64 64" width="512" xmlns="http://www.w3.org/2000/svg"><g><g><g><path d="m59 62h-46c0-1.1.45-2.1 1.17-2.83.73-.72 1.73-1.17 2.83-1.17h6 26 6c2.21 0 4 1.79 4 4z" fill="#838f9b"/></g><g><path d="m34.2 22.99v.03c-1.68.3-2.23.5-2.75.76-1.01.51-1.91 1.25-2.6 2.18l-.79 1.04c-.82 0-1.58.34-2.12.88s-.88 1.29-.88 2.12c0 1 .25 2.2.5 3.13.25.94.5 1.63.5 1.63l.01.01c-.62.53-1.01 1.34-1.01 2.23 0 .83.34 1.58.88 2.12s1.3.88 2.12.88h1.02c.21 1.54.92 2.9 1.97 3.95.53.53 1.13.97 1.8 1.3l-.01.03-.9 2.72-1.81.3-1.48.25c-1.74.29-3.3 1.24-4.34 2.67-.85 1.15-1.31 2.56-1.31 3.99v2.79h-6v-24c0-4.26 1.67-8.13 4.38-11h12.62c.07 0 .14 0 .2-.01z" fill="#e6e9ed"/></g><g><path d="m35.41 22.41c.37-.36.59-.86.59-1.41 0-2.21-1.79-4-4-4h5c1.31 0 2.61.32 3.76.94l10.21 5.44.01.01c2.5 2.82 4.02 6.53 4.02 10.61v24h-6v-2.79c0-1.43-.46-2.84-1.31-3.99-1.04-1.43-2.6-2.38-4.34-2.67l-1.51-.25-1.78-.3-.9-2.72-.01-.03c2-1.01 3.45-2.95 3.77-5.26l.07.01h1.07c.83 0 1.58-.34 2.12-.88s.88-1.29.88-2.12c0-.89-.38-1.69-1-2.23l.86-3.19c.1-.39.14-.78.14-1.18 0-1.02-.32-1.98-.88-2.78-.55-.8-1.35-1.43-2.31-1.78l-6.58-2.39c-.81-.3-1.67-.45-2.53-.45-.19 0-.38.01-.56.02v-.03c.47-.05.9-.26 1.21-.58z" fill="#e6e9ed"/></g><g><path d="m22 6-1.5 1.5-9.5 9.5-2 2-4-4 13-13z" fill="#75b1f2"/></g><g><path d="m36 21c0 .55-.22 1.05-.59 1.41-.31.32-.74.53-1.21.58-.06.01-.13.01-.2.01h-12.62-1.09c-.86 0-1.7-.14-2.51-.41-1.17-.39-2.23-1.04-3.11-1.92l-3.67-3.67 9.5-9.5.17.17c1.49 1.49 3.51 2.33 5.62 2.33h9.9c1.84 0 3.64.51 5.21 1.47l14.45 8.83c.71.43 1.15 1.21 1.15 2.05v.25c0 .66-.27 1.26-.7 1.7-.44.43-1.04.7-1.7.7-.39 0-.78-.1-1.13-.28l-2.49-1.33-.01-.01-10.21-5.44c-1.15-.62-2.45-.94-3.76-.94h-5c2.21 0 4 1.79 4 4z" fill="#f0d0b4"/></g><g><path d="m32 55 3.97-2.97h.03l3.97 2.97 1.87-6.7 1.51.25c1.74.29 3.3 1.24 4.34 2.67.85 1.15 1.31 2.56 1.31 3.99v2.79h-26v-2.79c0-1.43.46-2.84 1.31-3.99 1.04-1.43 2.6-2.38 4.34-2.67l1.48-.25z" fill="#b4dd7f"/></g><g><path d="m41.84 48.3-1.87 6.7-3.97-2.97 4.03-4.03h.03z" fill="#a0d468"/></g><g><path d="m35.97 52.03-3.97 2.97-1.87-6.7 1.81-.3z" fill="#a0d468"/></g><g><path d="m28.06 34c-.76 0-1.46.29-1.99.77l-.01-.01s-.25-.69-.5-1.63c-.25-.93-.5-2.13-.5-3.13 0-.83.34-1.58.88-2.12s1.3-.88 2.12-.88l.79-1.04c.69-.93 1.59-1.67 2.6-2.18.52-.26 1.07-.46 2.75-.76.18-.01.37-.02.56-.02.86 0 1.72.15 2.53.45l6.58 2.39c.96.35 1.76.98 2.31 1.78.56.8.88 1.76.88 2.78 0 .4-.04.79-.14 1.18l-.86 3.19c-.53-.48-1.23-.77-2-.77h-1-.06l-.5-.13c-2.32-.57-4.51-1.55-6.5-2.87-1.99 1.32-4.18 2.3-6.5 2.87l-.5.13z" fill="#b27946"/></g><g><path d="m44.06 34c.77 0 1.47.29 2 .77.62.54 1 1.34 1 2.23 0 .83-.34 1.58-.88 2.12s-1.29.88-2.12.88h-1.07l-.07-.01c.06-.32.08-.65.08-.99v-5h.06z" fill="#f0d0b4"/></g><g><path d="m32.85 45.25 3.15.75c1.14 0 2.21-.27 3.15-.75l.01.03.9 2.72h-.03l-4.03 4.03h-.03l-4.03-4.03.9-2.72z" fill="#f0d0b4"/></g><g><path d="m29.08 40c-.06-.32-.08-.66-.08-1v-5l.5-.13c2.32-.57 4.51-1.55 6.5-2.87 1.99 1.32 4.18 2.3 6.5 2.87l.5.13v5c0 .34-.02.67-.08.99-.32 2.31-1.77 4.25-3.77 5.26-.94.48-2.01.75-3.15.75l-3.15-.75c-.67-.33-1.27-.77-1.8-1.3-1.05-1.05-1.76-2.41-1.97-3.95z" fill="#f0d0b4"/></g><g><path d="m29.08 40h-1.02c-.82 0-1.58-.34-2.12-.88s-.88-1.29-.88-2.12c0-.89.39-1.7 1.01-2.23.53-.48 1.23-.77 1.99-.77h.94v5c0 .34.02.68.08 1z" fill="#f0d0b4"/></g></g><g><path d="m56 57.101v-23.101c0-2.849-.728-5.617-2.062-8.082.218.044.439.082.662.082 1.875 0 3.4-1.525 3.4-3.4v-.254c0-1.177-.624-2.289-1.627-2.901l-14.451-8.831c-1.728-1.056-3.711-1.614-5.735-1.614h-9.898c-1.6 0-3.115-.54-4.344-1.53l1.469-1.47-5.414-5.414-14.414 14.414 5.414 5.414 2-2 2.968 2.968c.976.977 2.185 1.723 3.494 2.16.603.201 1.224.33 1.852.399-2.141 2.904-3.314 6.401-3.314 10.059v23.101c-2.279.465-4 2.484-4 4.899v1h48v-1c0-2.414-1.721-4.434-4-4.899zm-2-.101h-4v-1.786c0-1.663-.52-3.25-1.504-4.59-1.204-1.64-2.972-2.728-4.979-3.062l-2.695-.449-.47-1.41c1.652-1.076 2.878-2.745 3.384-4.703h.327c2.206 0 4-1.794 4-4 0-.946-.344-1.805-.896-2.491l.721-2.687c.116-.464.175-.942.175-1.42 0-2.454-1.549-4.666-3.855-5.504l-6.579-2.392c-.297-.108-.6-.193-.905-.266.174-.38.276-.797.276-1.24 0-1.13-.391-2.162-1.026-3h1.026c1.145 0 2.284.285 3.294.824l10.03 5.349c2.368 2.727 3.676 6.208 3.676 9.827zm-26-21.994v3.987c-1.073-.035-1.936-.912-1.936-1.994s.863-1.958 1.936-1.993zm.877-2.006h-.813c-.503 0-.979.104-1.423.274-.265-.92-.577-2.225-.577-3.274 0-1.103.897-2 2-2h.5l1.082-1.442c1.2-1.602 3.113-2.558 5.115-2.558.747 0 1.482.129 2.185.385l6.579 2.392c1.519.552 2.539 2.009 2.539 3.625 0 .315-.039.63-.111.919l-.52 1.936c-.429-.158-.886-.257-1.369-.257h-.941l-.383-.096c-2.209-.552-4.29-1.473-6.186-2.736l-.554-.37-.555.37c-1.896 1.264-3.977 2.185-6.186 2.736zm15.123 2h.064c1.103 0 2 .897 2 2s-.897 2-2 2h-.064zm-14-.221c2.124-.558 4.138-1.428 6-2.589 1.862 1.162 3.876 2.031 6 2.589v4.221c0 3.309-2.691 6-6 6s-6-2.691-6-6zm10.38 14.287.196.033-1.179 4.225-1.874-1.402zm-4.38-2.066c.887 0 1.738-.151 2.537-.419l.375 1.125-2.928 2.928-2.904-2.904.383-1.149c.799.268 1.65.419 2.537.419zm-4.407 2.071 2.852 2.852-1.875 1.402-1.178-4.22zm-2.185.364 2.022 7.241 4.555-3.407 4.555 3.407 2.021-7.246.628.105c1.49.248 2.802 1.055 3.695 2.272.72.98 1.116 2.19 1.116 3.407v1.786h-24v-1.786c0-1.216.396-2.426 1.116-3.407.894-1.217 2.206-2.024 3.695-2.272zm-22.994-34.435 11.586-11.586 2.586 2.586-11.586 11.586zm8.968 4.968-2.968-2.968 8.112-8.112c1.61 1.364 3.627 2.112 5.762 2.112h9.898c1.656 0 3.279.457 4.693 1.321l14.451 8.831c.414.252.67.71.67 1.194v.254c0 .772-.628 1.4-1.4 1.4-.229 0-.457-.057-.659-.165l-12.706-6.776c-1.298-.693-2.763-1.059-4.235-1.059h-5-3-2v2h2 3c1.654 0 3 1.346 3 3 0 .551-.449 1-1 1h-13.712c-.747 0-1.485-.12-2.194-.356-1.016-.339-1.954-.918-2.712-1.676zm6.456 4.032h7.494c-.474.401-.909.854-1.288 1.358l-.507.676c-1.958.258-3.474 1.938-3.474 3.966 0 1.609.566 3.587.871 4.539-.537.681-.871 1.529-.871 2.461 0 2.206 1.794 4 4 4h.199c.507 1.958 1.732 3.627 3.384 4.703l-.47 1.41-2.695.449c-2.007.334-3.775 1.421-4.979 3.062-.982 1.34-1.502 2.927-1.502 4.59v1.786h-4v-23c0-3.715 1.367-7.245 3.838-10zm-7.667 37c.413-1.164 1.525-2 2.829-2h38c1.304 0 2.416.836 2.829 2z"/><path d="m32.169 40.447.105.21c.723 1.446 2.174 2.343 3.79 2.343 1.615 0 3.067-.897 3.788-2.34l.106-.211-1.787-.897-.107.213c-.381.762-1.147 1.236-2 1.236s-1.619-.474-2-1.236l-.105-.211z"/><circle cx="39" cy="37" r="1"/><circle cx="33" cy="37" r="1"/></g></g></svg>