<svg xmlns="http://www.w3.org/2000/svg" width="21.533" height="21.532" viewBox="0 0 21.533 21.532">
  <path id="Path_3" data-name="Path 3" d="M-8.653-10.745a5.669,5.669,0,0,1-5.663,5.663,5.669,5.669,0,0,1-5.663-5.663,5.669,5.669,0,0,1,5.663-5.663A5.669,5.669,0,0,1-8.653-10.745ZM-2.182-.228a1.627,1.627,0,0,0-.468-1.138L-6.985-5.7a8.878,8.878,0,0,0,1.567-5.043,8.9,8.9,0,0,0-8.9-8.9,8.9,8.9,0,0,0-8.9,8.9,8.9,8.9,0,0,0,8.9,8.9A8.878,8.878,0,0,0-9.273-3.413L-4.937.909A1.586,1.586,0,0,0-3.8,1.39,1.629,1.629,0,0,0-2.182-.228Z" transform="translate(23.464 19.893)" fill="#575757" stroke="#6a6a6a" stroke-width="0.5"/>
</svg>
